<svg width="1500" height="1009" xmlns="http://www.w3.org/2000/svg" xml:space="preserve"
	enable-background="new 0 0 1500 1009" version="1.1">

	<g>
	 <title>Layer 1</title>
	 <path id="svg_2" d="m1,706.46613c0.49726,-0.48633 1.12759,-0.31507 1.47235,-0.55475c9.28698,-6.45417 15.62478,-6.33875 25.41517,-0.60205c13.44464,7.87805 27.00867,15.57989 40.78793,22.85254c18.92516,9.98852 37.78904,20.18542 57.24069,29.06268c28.85486,13.16858 57.94938,25.89252 87.41057,37.62933c29.29936,11.67237 58.80567,23.08618 88.89335,32.45502c40.43433,12.59064 81.38156,23.61603 122.36997,34.31189c21.34832,5.57086 43.22485,9.16186 64.9227,13.33545c18.58023,3.57397 37.20102,6.98803 55.8887,9.93524c13.66473,2.15509 27.46753,3.43451 41.20801,5.11023c13.58258,1.65649 27.14929,3.45721 40.75152,4.93195c8.63953,0.9367 17.32318,1.52972 26.0011,2.03503c13.49506,0.78583 27.00238,1.3609 40.50397,2.03509c6.41864,0.32044 12.83331,0.87232 19.2547,0.96064c30.07922,0.41357 60.16052,0.97015 90.24023,0.92321c15.16992,-0.02368 30.3479,-1.05352 45.50385,-1.9411c12.76843,-0.74768 25.53058,-1.74273 38.25866,-3.00079c14.4397,-1.42712 28.83893,-3.26355 43.25464,-4.93207c11.49427,-1.33044 23.0271,-2.40222 34.46973,-4.08557c13.77234,-2.02594 27.48401,-4.48456 41.19134,-6.92725c14.31464,-2.55084 28.62317,-5.15405 42.87903,-8.01116c15.80139,-3.16688 31.64734,-6.21454 47.28162,-10.08936c25.40564,-6.29663 50.79761,-12.73242 75.92908,-20.02667c24.1604,-7.01239 48.16333,-14.67365 71.90393,-22.99573c25.0769,-8.79047 49.78076,-18.64978 74.60888,-28.14325c9.45862,-3.6167 18.32312,-8.85254 29.16639,-7.85925c7.5708,0.69348 16.50854,5.82953 19.19531,12.15283c3.77685,8.88885 2.45141,17.5824 -4.45789,23.53345c-11.39111,9.81128 -23.5603,18.85449 -36.09863,27.17059c-26.94421,17.87116 -54.64649,34.55243 -83.95313,48.33789c-23.35595,10.98621 -46.55358,22.43097 -70.45874,32.09589c-27.89318,11.27704 -56.21887,21.64386 -84.84008,30.91394c-26.69715,8.64703 -53.9115,15.79431 -81.11951,22.73346c-18.88562,4.81659 -38.07642,8.54528 -57.26032,12.052c-17.54156,3.20654 -35.21838,5.76001 -52.90649,8.05401c-18.27997,2.37085 -36.63733,4.16132 -54.97711,6.04743c-8.48041,0.87207 -17.0025,1.33398 -25.49719,2.07788c-1.04023,0.09106 -2.0282,0.77936 -2.73737,1.573c-43.38452,0.3822 -87.07208,0.3822 -130.92523,0c-1.01312,-0.79328 -1.83673,-1.50067 -2.71155,-1.57099c-13.24603,-1.06482 -26.51398,-1.88128 -39.74554,-3.09539c-12.01673,-1.10242 -24.01374,-2.47327 -35.9867,-3.98511c-14.66815,-1.85217 -29.38733,-3.49677 -43.93097,-6.09162c-21.91851,-3.91058 -43.9154,-7.7207 -65.49469,-13.11181c-29.56958,-7.38739 -58.89325,-15.83435 -88.09878,-24.57422c-16.55164,-4.95312 -32.89005,-10.82166 -48.91144,-17.2995c-29.24954,-11.82629 -58.55771,-23.62561 -87.15061,-36.92169c-24.16874,-11.23877 -47.59497,-24.15698 -70.90803,-37.1261c-17.69411,-9.84332 -34.91257,-20.59558 -51.93745,-31.57196c-15.45472,-9.96393 -30.59077,-20.46301 -45.45246,-31.29535c-17.93673,-13.07367 -35.72558,-26.38666 -53.03283,-40.27594c-13.66917,-10.96966 -26.52611,-22.95282 -39.71342,-34.52045c-2.63609,-2.31238 -5.13506,-4.78106 -7.69726,-7.17767c0,-4.68927 0,-9.37848 0,-14.53387z" fill="#FFFFFF"/>
	 <path id="svg_3" d="m799.53137,1c0.50336,0.51575 0.36566,1.38137 0.59809,1.49589c5.26623,2.59478 5.8377,7.45929 5.84106,12.40769c0.04413,65.16526 0.02948,130.33055 0.02948,195.49585c0,1.77992 0,3.55984 0,5.93585c8.52844,-5.33598 16.43286,-10.46228 24.51056,-15.29925c18.96472,-11.35617 39.10229,-20.19021 60.42889,-25.89016c12.90766,-3.44981 26.09711,-6.37304 39.3476,-7.85405c11.69195,-1.30679 23.64441,-0.33491 35.48138,-0.27864c12.93671,0.0615 25.43329,2.65276 37.56873,6.99659c21.06958,7.54182 37.61182,20.57383 48.46777,40.39163c7.4408,13.58343 12.10523,28.04608 13.15515,43.52872c0.86951,12.82128 1.92395,25.66616 1.95081,38.50256c0.17407,83.16455 0.12866,166.32971 0.00696,249.49444c-0.00879,6.02582 -0.04248,12.63178 -6.57581,16.06525c-2.18628,1.14899 -4.8573,1.89673 -7.31592,1.92169c-16.3313,0.16602 -32.66516,0.10608 -48.99804,0.07715c-7.65796,-0.01361 -12.37604,-4.23797 -12.99634,-11.82495c-0.49573,-6.06238 -0.98377,-12.14844 -0.98865,-18.22443c-0.06463,-80.33154 0.25336,-160.66516 -0.27307,-240.99334c-0.11664,-17.78571 -4.69879,-35.15549 -17.91199,-48.39792c-9.67297,-9.69446 -22.07348,-14.28365 -35.66052,-15.53179c-4.90546,-0.45062 -9.83667,-1.03807 -14.74579,-0.95512c-17.30402,0.29239 -34.24292,2.99959 -50.87476,7.89169c-21.92462,6.44893 -42.05133,16.54817 -61.2492,28.8021c-3.23157,2.06274 -3.3385,4.36102 -3.33807,7.34109c0.01257,92.49805 0.01062,184.99606 0.00994,277.49411c-0.00006,9.44409 -4.95923,14.40613 -14.39605,14.40698c-15.66632,0.00141 -31.33271,0.00879 -46.99903,-0.00274c-9.45581,-0.00702 -14.35394,-4.8227 -14.60101,-14.32117c-0.026,-0.99933 -0.00354,-1.99988 -0.00354,-2.99988c0,-175.66296 0.01849,-351.32594 -0.06781,-526.98887c-0.00342,-7.02678 1.04138,-13.3117 6.35468,-18.39931c20.734,-0.28766 41.75494,-0.28766 63.2445,-0.28766z" fill="#FFFFFF"/>
	 <path id="svg_4" d="m1501,407.53137c-0.66577,1.12229 -1.86914,1.73743 -1.91919,2.43512c-1.40698,19.64993 -6.47412,38.49249 -13.19543,56.84915c-6.63172,18.11161 -16.29822,34.57819 -28.63001,49.53836c-15.09997,18.31873 -33.31628,32.48114 -54.76904,42.46467c-13.60144,6.32977 -27.91089,10.81451 -42.70899,13.02166c-11.95874,1.78357 -24.11315,2.42468 -36.20764,3.07025c-8.63574,0.46088 -17.36963,0.71021 -25.96496,-0.03637c-19.5,-1.69373 -38.69776,-5.02832 -56.96961,-12.59821c-17.29248,-7.16418 -33.08057,-16.46545 -47.11572,-29.05652c-17.72705,-15.90283 -30.74695,-34.94101 -40.53687,-56.41995c-6.48571,-14.22983 -11.50964,-28.98328 -13.87146,-44.43243c-2.18957,-14.32203 -3.77539,-28.75876 -5.00232,-43.19809c-0.89526,-10.5358 -1.53723,-21.19968 -0.95849,-31.73319c1.43384,-26.10144 4.76929,-51.92477 13.54455,-76.81067c7.53199,-21.36041 18.29578,-40.68753 33.01624,-57.99479c14.61304,-17.18116 32.27026,-30.11382 52.5144,-39.57563c15.51404,-7.25091 31.8368,-12.25754 48.93226,-13.97346c14.03893,-1.40915 28.177,-3.17214 42.22656,-2.84726c26.67077,0.61671 52.82226,4.81128 77.42737,16.07986c15.73779,7.20754 29.94067,16.46 42.58606,28.40825c15.76159,14.89272 28.1361,32.11182 37.25122,51.6292c8.12548,17.39853 13.70153,35.65616 16.39965,54.74899c0.78321,5.5419 2.12659,11.00461 3.58228,16.20163c0.36914,24.38562 0.36914,49.07318 0.36914,74.22943m-131.01709,93.99201c19.30188,-10.18973 31.53064,-26.68918 39.80151,-46.18222c10.34949,-24.3913 13.10926,-50.39975 14.11023,-76.57892c0.3335,-8.72513 -0.31762,-17.51511 -0.96008,-26.24298c-0.7063,-9.59916 -1.72974,-19.1854 -2.95483,-28.73368c-2.37928,-18.54699 -8.07788,-35.96984 -17.67762,-52.13967c-6.89318,-11.61118 -15.88525,-21.23929 -27.06494,-28.50535c-15.2157,-9.88913 -32.52893,-13.92398 -50.40002,-15.02758c-15.24439,-0.94141 -30.39282,0.69989 -44.96839,5.52885c-25.13159,8.32628 -42.3164,25.25792 -53.32775,49.17021c-10.79078,23.4332 -14.38184,48.29734 -15.39441,73.6323c-0.50806,12.71579 0.11389,25.52066 0.97949,38.23385c0.7168,10.52667 2.03271,21.0741 3.99292,31.44028c2.99792,15.85553 8.34558,30.93384 16.83642,44.83478c10.74341,17.58886 25.77955,29.95187 45.17164,36.50378c15.48132,5.23059 31.41626,7.12299 47.99389,5.80371c15.2605,-1.21441 29.61719,-4.4747 43.86194,-11.73736z" fill="#FFFFFF"/>
	 <path id="svg_5" d="m1,341.46866c0.66615,-1.11694 1.88971,-1.7428 1.91678,-2.41675c0.64844,-16.1424 3.83336,-31.8804 8.17014,-47.33579c6.52878,-23.2673 16.68558,-44.79882 31.61649,-64.03938c11.87353,-15.30069 26.04461,-27.79603 42.69465,-37.56274c14.22631,-8.34496 29.24255,-14.94106 45.47279,-17.98139c12.43573,-2.32955 25.07353,-3.65881 37.66325,-5.05667c6.87009,-0.76278 13.85573,-1.31593 20.73961,-0.97146c23.21143,1.16157 46.03162,4.25113 67.50089,14.15397c30.20083,13.93038 50.96249,36.4953 63.40384,67.17115c5.61904,13.85455 9.76782,28.06103 10.72223,42.95153c1.109,17.30201 2.05419,34.66077 1.87216,51.9823c-0.1138,10.83204 -1.9357,21.73374 -3.91193,32.43409c-2.00052,10.83233 -4.87662,12.39853 -16.21496,13.14718c-4.97742,0.32865 -9.9946,0.0553 -14.99372,0.0553c-72.32058,0 -144.64119,0 -216.96177,0c-1.79888,0 -3.59775,0 -5.69211,0c0.6967,8.88629 0.68522,17.45923 2.18883,25.7576c1.97289,10.88831 4.4102,21.80533 7.92818,32.27997c11.39573,33.93045 35.50715,54.00341 69.76278,63.05121c22.99795,6.07437 46.3992,5.60415 69.68559,4.65805c21.50826,-0.8739 42.50107,-6.01603 63.20163,-12.03647c8.6156,-2.50577 17.28137,-5.1637 26.11389,-6.49616c7.02066,-1.05917 10.91416,2.67881 10.99674,9.78699c0.13043,11.22873 -0.56244,22.46616 -0.86454,33.70114c-0.17987,6.68884 -5.29144,9.66968 -10.05282,12.177c-13.84503,7.29084 -28.75,11.8086 -44.00571,15.08771c-11.51694,2.4754 -23.02839,5.16193 -34.6776,6.78101c-10.39079,1.44403 -20.95822,1.79828 -31.46415,2.17944c-9.47716,0.34381 -18.98438,0.32086 -28.46474,0.0246c-25.60802,-0.8003 -50.41492,-5.48987 -74.22268,-15.30084c-21.48526,-8.85401 -39.94816,-21.95832 -55.14059,-39.35499c-15.66818,-17.94143 -26.65088,-38.75323 -32.79905,-61.72317c-3.95201,-14.76495 -6.20824,-29.98563 -9.16767,-45.01325c-0.81934,-4.16049 -1.43516,-8.36105 -2.5804,-12.55154c-0.43603,-19.69586 -0.43603,-39.38342 -0.43603,-59.53964m143.5,-4.46866c39.2982,0 78.59641,0 118.49609,0c0.34415,-2.95322 0.99802,-5.79007 0.94394,-8.6134c-0.17074,-8.9162 -0.46209,-17.8356 -0.97262,-26.73853c-0.84101,-14.66656 -4.44431,-28.48892 -11.86778,-41.39078c-13.50301,-23.46801 -34.68499,-33.3988 -60.57203,-35.17862c-7.46345,-0.51315 -14.99441,-0.19871 -22.49029,-0.05239c-13.45352,0.26257 -26.23981,3.7025 -38.15654,9.68379c-22.44285,11.26462 -36.55087,29.78309 -44.9355,53.13289c-5.66798,15.78436 -8.37255,32.10992 -9.75708,49.15704c22.73551,0 45.52365,0 69.31181,0z" fill="#FFFFFF"/>
	 <path id="svg_7" d="m1501,742.53131c-0.66626,1.11664 -1.85046,1.71076 -1.92444,2.42041c-3.47986,33.42914 -12.85083,65.23035 -25.60083,96.23383c-10.79883,26.25854 -24.46997,50.84747 -42.33044,72.80255c-9.12305,11.21435 -20.09314,20.99866 -30.78369,30.82495c-3.66187,3.36578 -8.57422,6.03119 -14.46021,4.27142c-5.44812,-1.62896 -8.2644,-5.58954 -6.44604,-10.91107c3.10241,-9.07996 6.64233,-18.00952 9.93322,-27.02612c7.63196,-20.91101 15.80323,-41.64893 22.65662,-62.81305c5.77991,-17.84918 10.82227,-36.0318 14.62671,-54.39105c2.31164,-11.15534 2.59131,-22.96888 2.07287,-34.40912c-0.55236,-12.18714 -8.66052,-19.58307 -20.17456,-22.40009c-9.38977,-2.29736 -19.00195,-4.35638 -28.61132,-4.93817c-17.04053,-1.03168 -34.17176,-1.49432 -51.2312,-1.00824c-15.36426,0.43775 -30.68091,2.49152 -46.02271,3.78314c-8.66174,0.72925 -17.34314,1.24103 -25.99524,2.06617c-8.92993,0.85168 -17.83984,1.92364 -26.7489,2.98052c-4.46533,0.52973 -8.99573,-0.43139 -10.55139,-4.51422c-1.6875,-4.42828 -0.99671,-9.84417 2.9508,-13.18383c5.78662,-4.8957 11.91626,-9.50202 18.36316,-13.48053c23.77551,-14.67249 49.98218,-23.34259 76.9784,-29.58942c11.18664,-2.5885 22.70019,-4.12177 34.15344,-5.11731c17.37439,-1.51019 34.86181,-3.35638 52.23633,-2.84607c26.27002,0.77161 52.50024,2.99506 77.55029,12.51276c9.51685,3.61596 16.2981,8.64721 17.44897,19.34228c0.05616,0.52228 0.80774,0.96973 1.57276,1.15546c0.3374,12.39105 0.3374,25.07861 0.3374,38.2348z" fill="#FFFFFF"/>
	 <path id="svg_8" d="m654.23096,498.01666c1.50689,-0.33728 2.56268,-0.74072 3.65503,-0.96945c8.53369,-1.7865 14.02069,2.63059 14.09436,11.48706c0.08459,10.16416 0.04425,20.32968 0.01074,30.49448c-0.0213,6.44989 -3.03595,11.13476 -8.6618,14.17053c-15.76276,8.50574 -32.85175,12.62598 -50.32245,15.9126c-21.16858,3.98236 -42.52185,3.54071 -63.73932,2.61572c-23.29456,-1.01538 -45.96076,-6.23334 -67.53727,-15.68842c-19.72155,-8.64227 -36.80255,-20.90161 -50.98092,-36.93426c-16.6774,-18.85852 -27.92346,-40.75748 -34.86215,-65.00806c-4.51761,-15.78909 -7.91758,-31.71948 -8.84787,-48.10736c-0.86036,-15.15628 -2.33206,-30.3634 -1.84082,-45.49316c1.04055,-32.04865 6.16885,-63.49542 19.16058,-93.11264c6.03903,-13.76721 14.02347,-26.45839 23.72208,-38.09894c10.17111,-12.20778 21.61679,-23.02397 34.89425,-31.56877c18.52292,-11.92057 38.77045,-20.08406 60.60016,-23.63271c11.40436,-1.85389 22.93384,-3.27687 34.46167,-3.93675c11.63098,-0.66579 23.40058,-0.96831 34.98401,0.02797c22.71686,1.95383 44.97778,6.46442 65.97852,15.8412c6.80413,3.03806 9.9425,8.5491 9.98632,15.86845c0.05695,9.49799 0.02381,18.9966 0.01123,28.49491c-0.01348,10.19894 -5.26696,14.71925 -15.01837,12.55173c-10.35486,-2.30167 -20.58795,-5.16375 -30.96637,-7.34218c-6.18914,-1.29907 -12.5332,-2.07895 -18.84741,-2.51168c-9.22925,-0.63249 -18.50482,-1.19932 -27.742,-0.98602c-22.0672,0.5096 -43.49884,4.21012 -63.05756,15.18167c-17.23386,9.66748 -29.05768,24.14401 -36.34759,42.36927c-6.34296,15.85781 -10.22642,32.29641 -11.02305,49.41015c-0.65179,14.00205 -2.13647,28.02213 -1.80459,41.99985c0.4902,20.64859 2.36752,41.34292 8.96252,61.0661c8.09629,24.2131 22.27787,43.98462 45.92884,55.31918c11.92382,5.71442 24.56439,9.64249 37.93695,10.57251c9.00171,0.6261 18.00018,1.90387 26.99688,1.87546c21.9029,-0.06915 43.23822,-4.36169 64.33051,-9.94748c1.85504,-0.4913 3.63556,-1.2641 5.88489,-1.92096z" fill="#FFFFFF"/>
	</g>
 </svg>
