<svg id="Layer_1" data-name="Layer 1" xmlns="http://www.w3.org/2000/svg"
  viewBox="0 0 1005.17647 1025.9433">
  <defs>
    <style>
      .cls-1,.cls-2{fill:none;stroke:#010101;stroke-miterlimit:10;}.cls-1{stroke-width:22.58824px;}.cls-2{stroke-width:45.17647px;}.cls-3{fill:#010101;fill-rule:evenodd;}</style>
  </defs>
  <path class="cls-1"
    d="M570.63742,1030.02591c-251.51063-12.57555-444.767-214.52386-511.71326-468.80856C25.45105,428.24956,38.39648,302.30942,88.88356,210.76686"
    transform="translate(104.71535 -36.40324)" />
  <path class="cls-2"
    d="M580.47888,1027.38579c-420.35564,62.87763-607.50923-123.1663-654.29759-348.4163C-110.6206,497.91879-19.263,310.58032,84.11518,199.4348c26.26063-28.29493,62.138-64.542,91.72743-87.10408,46.2336-35.13755,104.118-54.74056,171.989-53.26114,257.24352,1.47953,473.98667,255.94922,520.95994,512.453,37.72651,194.73589-43.82944,400.013-212.30457,443.47257-22.19216,5.733-52.70638,8.87684-76.00807,12.39066Z"
    transform="translate(104.71535 -36.40324)" />
  <path class="cls-1"
    d="M126.65007,553.02923C70.06018,319.27216,169.185,109.92665,364.84549,114.365c219.3321,1.29453,404.0815,226.54453,444.02735,453.82882,36.80188,196.58519-58.99417,405.56093-246.14763,399.828C348.38635,956.92575,183.7948,778.09423,126.65007,553.02923Z"
    transform="translate(104.71535 -36.40324)" />
  <path class="cls-3"
    d="M170.47949,116.5842c47.15825-37.72656,106.892-58.994,177.35209-57.51462,101.159.73977,196.03031,40.31571,276.84662,103.9331l-12.02068,53.07615c-71.3847-61.953-156.63947-101.15905-247.812-101.71381-56.22008-1.29453-104.303,15.16461-143.32416,44.75407Z"
    transform="translate(104.71535 -36.40324)" />
</svg>
