<svg id="Layer_1" data-name="Layer 1" xmlns="http://www.w3.org/2000/svg"
  viewBox="0 0 998.76211 1013.70018">
  <defs>
    <style>
      .cls-1,.cls-2{fill:none;stroke:#010101;stroke-linecap:round;stroke-linejoin:round;}.cls-1{stroke-width:22.44409px;}.cls-2{stroke-width:44.88819px;}</style>
  </defs>
  <path class="cls-1"
    d="M1250.663,782.12946c-71.607,72.45155-173.44458,116.02372-291.326,118.21932-263.46009,4.391-489.76556-180.87549-516.78712-437.749-7.262-59.61645-1.85784-117.20608,14.52421-169.89808"
    transform="translate(-383.58521 2.49112)" />
  <line class="cls-1" x1="86.35176" y1="572.1789" x2="982.44409" y2="458.71685" />
  <path class="cls-2"
    d="M1254.54743,778.07628c79.88245-83.26018,120.2459-203.3372,100.31757-341.82263C1314.33265,205.72611,1106.26671,24.1751,851.41977,19.953c-162.97374.84436-293.35271,82.07783-362.59534,197.93278-31.07486,52.18532-61.30514,145.07188-72.78945,203.84386-48.6387,248.2604,90.86,437.07346,185.77326,533.67553,52.18521,49.31427,445.85538,39.519,499.89851-.50668,57.42085-53.87424,109.2685-110.45052,148.95628-172.769"
    transform="translate(-383.58521 2.49112)" />
</svg>
